<svg width="25" height="25" viewBox="0 0 25 25" fill="none" xmlns="http://www.w3.org/2000/svg">
<path d="M2.08333 22.9167V4.16671C2.08333 3.59379 2.28733 3.10334 2.69531 2.69535C3.1033 2.28737 3.59375 2.08337 4.16667 2.08337H20.8333C21.4063 2.08337 21.8967 2.28737 22.3047 2.69535C22.7127 3.10334 22.9167 3.59379 22.9167 4.16671V16.6667C22.9167 17.2396 22.7127 17.7301 22.3047 18.1381C21.8967 18.546 21.4063 18.75 20.8333 18.75H6.25L2.08333 22.9167ZM6.25 14.5834H14.5833V12.5H6.25V14.5834ZM6.25 11.4584H18.75V9.37504H6.25V11.4584ZM6.25 8.33337H18.75V6.25004H6.25V8.33337Z" fill="#8AA7FF"/>
</svg>
