<svg width="32" height="31" viewBox="0 0 32 31" fill="none" xmlns="http://www.w3.org/2000/svg">
<path d="M18.3333 11.625C17.7811 11.625 17.3333 11.1773 17.3333 10.625V4.875C17.3333 4.32272 17.781 3.875 18.3333 3.875H27C27.5523 3.875 28 4.32272 28 4.875V10.625C28 11.1773 27.5523 11.625 27 11.625H18.3333ZM5 16.7917C4.44772 16.7917 4 16.344 4 15.7917V4.875C4 4.32272 4.44772 3.875 5 3.875H13.6667C14.219 3.875 14.6667 4.32272 14.6667 4.875V15.7917C14.6667 16.344 14.219 16.7917 13.6667 16.7917H5ZM18.3333 27.125C17.7811 27.125 17.3333 26.6773 17.3333 26.125V15.2083C17.3333 14.656 17.781 14.2083 18.3333 14.2083H27C27.5523 14.2083 28 14.656 28 15.2083V26.125C28 26.6773 27.5523 27.125 27 27.125H18.3333ZM5 27.125C4.44772 27.125 4 26.6773 4 26.125V20.375C4 19.8227 4.44772 19.375 5 19.375H13.6667C14.219 19.375 14.6667 19.8227 14.6667 20.375V26.125C14.6667 26.6773 14.219 27.125 13.6667 27.125H5Z" fill="#3F6FFF"/>
</svg>
