<svg width="26" height="26" viewBox="0 0 26 26" fill="none" xmlns="http://www.w3.org/2000/svg">
<path d="M11.8625 19.8791L8.01667 16.0333L9.5875 14.4625L11.8625 16.7375L16.4125 12.1875L17.9833 13.7583L11.8625 19.8791ZM5.41667 23.8333C4.82083 23.8333 4.31076 23.6211 3.88646 23.1968C3.46215 22.7725 3.25 22.2625 3.25 21.6666V6.49996C3.25 5.90413 3.46215 5.39406 3.88646 4.96975C4.31076 4.54545 4.82083 4.33329 5.41667 4.33329H6.5V2.16663H8.66667V4.33329H17.3333V2.16663H19.5V4.33329H20.5833C21.1792 4.33329 21.6892 4.54545 22.1135 4.96975C22.5378 5.39406 22.75 5.90413 22.75 6.49996V21.6666C22.75 22.2625 22.5378 22.7725 22.1135 23.1968C21.6892 23.6211 21.1792 23.8333 20.5833 23.8333H5.41667ZM5.41667 21.6666H20.5833V10.8333H5.41667V21.6666Z" fill="#8AA7FF"/>
</svg>
