<svg width="28" height="28" viewBox="0 0 28 28" fill="none" xmlns="http://www.w3.org/2000/svg">
<path d="M13.9417 21C14.35 21 14.6951 20.859 14.9771 20.5771C15.259 20.2951 15.4 19.95 15.4 19.5416C15.4 19.1333 15.259 18.7882 14.9771 18.5062C14.6951 18.2243 14.35 18.0833 13.9417 18.0833C13.5333 18.0833 13.1882 18.2243 12.9063 18.5062C12.6243 18.7882 12.4833 19.1333 12.4833 19.5416C12.4833 19.95 12.6243 20.2951 12.9063 20.5771C13.1882 20.859 13.5333 21 13.9417 21ZM12.8917 16.5083H15.05C15.05 15.8666 15.1229 15.3611 15.2688 14.9916C15.4146 14.6222 15.8278 14.1166 16.5083 13.475C17.0139 12.9694 17.4125 12.4882 17.7042 12.0312C17.9958 11.5743 18.1417 11.025 18.1417 10.3833C18.1417 9.29442 17.7431 8.45831 16.9458 7.87498C16.1486 7.29165 15.2056 6.99998 14.1167 6.99998C13.0083 6.99998 12.109 7.29165 11.4188 7.87498C10.7285 8.45831 10.2472 9.15831 9.975 9.97498L11.9 10.7333C11.9972 10.3833 12.216 10.0041 12.5563 9.59581C12.8965 9.18748 13.4167 8.98331 14.1167 8.98331C14.7389 8.98331 15.2056 9.15345 15.5167 9.49373C15.8278 9.83401 15.9833 10.2083 15.9833 10.6166C15.9833 11.0055 15.8667 11.3701 15.6333 11.7104C15.4 12.0507 15.1083 12.3666 14.7583 12.6583C13.9028 13.4166 13.3778 13.9903 13.1833 14.3791C12.9889 14.768 12.8917 15.4778 12.8917 16.5083ZM14 25.6666C12.3861 25.6666 10.8694 25.3604 9.45 24.7479C8.03056 24.1354 6.79583 23.3041 5.74583 22.2541C4.69583 21.2041 3.86458 19.9694 3.25208 18.55C2.63958 17.1305 2.33333 15.6139 2.33333 14C2.33333 12.3861 2.63958 10.8694 3.25208 9.44998C3.86458 8.03054 4.69583 6.79581 5.74583 5.74581C6.79583 4.69581 8.03056 3.86456 9.45 3.25206C10.8694 2.63956 12.3861 2.33331 14 2.33331C15.6139 2.33331 17.1306 2.63956 18.55 3.25206C19.9694 3.86456 21.2042 4.69581 22.2542 5.74581C23.3042 6.79581 24.1354 8.03054 24.7479 9.44998C25.3604 10.8694 25.6667 12.3861 25.6667 14C25.6667 15.6139 25.3604 17.1305 24.7479 18.55C24.1354 19.9694 23.3042 21.2041 22.2542 22.2541C21.2042 23.3041 19.9694 24.1354 18.55 24.7479C17.1306 25.3604 15.6139 25.6666 14 25.6666Z" fill="#8AA7FF"/>
</svg>
