<svg width="28" height="27" viewBox="0 0 28 27" fill="none" xmlns="http://www.w3.org/2000/svg">
<path d="M5.83333 24.75C5.19167 24.75 4.64236 24.5297 4.18542 24.0891C3.72847 23.6484 3.5 23.1187 3.5 22.5V9.81562C3.15 9.60938 2.86806 9.34219 2.65417 9.01406C2.44028 8.68594 2.33333 8.30625 2.33333 7.875V4.5C2.33333 3.88125 2.56181 3.35156 3.01875 2.91094C3.4757 2.47031 4.025 2.25 4.66667 2.25H23.3333C23.975 2.25 24.5243 2.47031 24.9813 2.91094C25.4382 3.35156 25.6667 3.88125 25.6667 4.5V7.875C25.6667 8.30625 25.5597 8.68594 25.3458 9.01406C25.1319 9.34219 24.85 9.60938 24.5 9.81562V22.5C24.5 23.1187 24.2715 23.6484 23.8146 24.0891C23.3576 24.5297 22.8083 24.75 22.1667 24.75H5.83333ZM4.66667 7.875H23.3333V4.5H4.66667V7.875ZM10.5 15.75H17.5V13.5H10.5V15.75Z" fill="#8AA7FF"/>
</svg>
