<svg width="30" height="30" viewBox="0 0 30 30" fill="none" xmlns="http://www.w3.org/2000/svg">
<path d="M6 25C5.44772 25 5 24.5523 5 24V9.09346C5 8.94952 4.96892 8.80727 4.9089 8.67644L2.97496 4.46144C2.74643 3.96338 2.96133 3.37417 3.45685 3.14017L3.90314 2.92942C4.40453 2.69265 5.00285 2.90905 5.23679 3.41177L7.48098 8.2344C7.64507 8.58701 7.99871 8.8125 8.38763 8.8125H21.6124C22.0013 8.8125 22.3549 8.58701 22.519 8.2344L24.7632 3.41177C24.9972 2.90905 25.5955 2.69265 26.0969 2.92942L26.5432 3.14017C27.0387 3.37416 27.2536 3.96338 27.025 4.46144L25.0911 8.67644C25.0311 8.80727 25 8.94952 25 9.09346V24C25 24.5523 24.5523 25 24 25H6ZM12.5 16.25H17.5C17.8542 16.25 18.151 16.1302 18.3906 15.8906C18.6302 15.651 18.75 15.3542 18.75 15C18.75 14.6458 18.6302 14.349 18.3906 14.1094C18.151 13.8698 17.8542 13.75 17.5 13.75H12.5C12.1458 13.75 11.849 13.8698 11.6094 14.1094C11.3698 14.349 11.25 14.6458 11.25 15C11.25 15.3542 11.3698 15.651 11.6094 15.8906C11.849 16.1302 12.1458 16.25 12.5 16.25Z" fill="#8AA7FF"/>
</svg>
