<svg width="26" height="26" viewBox="0 0 26 26" fill="none" xmlns="http://www.w3.org/2000/svg">
<path d="M6.5 23.8333C5.59722 23.8333 4.82986 23.5173 4.19792 22.8854C3.56597 22.2534 3.25 21.4861 3.25 20.5833V17.3333H6.5V2.16663L8.125 3.79163L9.75 2.16663L11.375 3.79163L13 2.16663L14.625 3.79163L16.25 2.16663L17.875 3.79163L19.5 2.16663L21.125 3.79163L22.75 2.16663V20.5833C22.75 21.4861 22.434 22.2534 21.8021 22.8854C21.1701 23.5173 20.4028 23.8333 19.5 23.8333H6.5ZM19.5 21.6666C19.8069 21.6666 20.0642 21.5628 20.2719 21.3552C20.4795 21.1475 20.5833 20.8902 20.5833 20.5833V5.41663H8.66667V17.3333H18.4167V20.5833C18.4167 20.8902 18.5205 21.1475 18.7281 21.3552C18.9358 21.5628 19.1931 21.6666 19.5 21.6666ZM9.75 9.74996V7.58329H16.25V9.74996H9.75ZM9.75 13V10.8333H16.25V13H9.75ZM18.4167 9.74996C18.1097 9.74996 17.8524 9.64614 17.6448 9.4385C17.4372 9.23086 17.3333 8.97357 17.3333 8.66663C17.3333 8.35968 17.4372 8.10239 17.6448 7.89475C17.8524 7.68711 18.1097 7.58329 18.4167 7.58329C18.7236 7.58329 18.9809 7.68711 19.1885 7.89475C19.3962 8.10239 19.5 8.35968 19.5 8.66663C19.5 8.97357 19.3962 9.23086 19.1885 9.4385C18.9809 9.64614 18.7236 9.74996 18.4167 9.74996ZM18.4167 13C18.1097 13 17.8524 12.8961 17.6448 12.6885C17.4372 12.4809 17.3333 12.2236 17.3333 11.9166C17.3333 11.6097 17.4372 11.3524 17.6448 11.1447C17.8524 10.9371 18.1097 10.8333 18.4167 10.8333C18.7236 10.8333 18.9809 10.9371 19.1885 11.1447C19.3962 11.3524 19.5 11.6097 19.5 11.9166C19.5 12.2236 19.3962 12.4809 19.1885 12.6885C18.9809 12.8961 18.7236 13 18.4167 13Z" fill="#8AA7FF"/>
</svg>
