<svg width="26" height="26" viewBox="0 0 26 26" fill="none" xmlns="http://www.w3.org/2000/svg">
<path d="M11.8625 19.5L17.9833 13.3791L16.4125 11.8083L11.8354 16.3854L9.56042 14.1104L8.01667 15.6541L11.8625 19.5ZM6.5 23.8333C5.90417 23.8333 5.3941 23.6211 4.96979 23.1968C4.54549 22.7725 4.33333 22.2625 4.33333 21.6666V4.33329C4.33333 3.73746 4.54549 3.22739 4.96979 2.80308C5.3941 2.37878 5.90417 2.16663 6.5 2.16663H15.1667L21.6667 8.66663V21.6666C21.6667 22.2625 21.4545 22.7725 21.0302 23.1968C20.6059 23.6211 20.0958 23.8333 19.5 23.8333H6.5ZM14.0833 9.74996H19.5L14.0833 4.33329V9.74996Z" fill="#8AA7FF"/>
</svg>
